<?xml version="1.0" encoding="utf-8"?>
<!-- Generator: Adobe Illustrator 19.0.0, SVG Export Plug-In . SVG Version: 6.00 Build 0)  -->
<svg version="1.1" id="Capa_1" xmlns="http://www.w3.org/2000/svg" xmlns:xlink="http://www.w3.org/1999/xlink" x="0px" y="0px"
	 viewBox="0 0 86.6 98.3" style="enable-background:new 0 0 86.6 98.3;" xml:space="preserve">
<style type="text/css">
	.st0{fill-rule:evenodd;clip-rule:evenodd;fill:#FFFFFF;}
</style>
<path id="XMLID_1_" class="st0" d="M86.6,45.8c0-7.4-6-13.6-13.6-13.6c-7.4,0-13.6,6.2-13.6,13.6c0,6.9,4.8,12.4,11.3,13.6v14.3
	c0,11.1-9,20.3-20.3,20.3c-11.1,0-20-9.2-20-20.3l-0.2-16.4c5.3-0.7,10.6-3.9,15.2-9.2c0.7-0.7,0.9-1.8,0.7-2.8
	c6-7.8,9.7-18.7,9.7-26.9C55.7,5.5,50,4.1,40.5,1.8l0,0C39.8,0.7,38.7,0,37.3,0c-2.1,0-3.7,1.6-3.7,3.5c0,2.1,1.6,3.7,3.7,3.7
	c0.9,0,1.6-0.2,2.1-0.7h0.2c9.2,2.1,11.7,2.5,11.7,12c0,7.1-3.5,17-8.8,24.2c-0.9,0-1.8,0.5-2.5,1.2c-2.5,3-6.9,6.9-12,6.9
	c-5.3,0-9.4-3.9-12.2-6.9c-0.7-0.7-1.6-1.2-2.3-1.2c-5.5-7.1-9-17-9-24.2c0-9.4,2.5-9.9,11.7-12h0.2c0.5,0.5,1.2,0.7,2.1,0.7
	c2.1,0,3.7-1.6,3.7-3.7c0-1.8-1.6-3.5-3.7-3.5c-1.4,0-2.5,0.7-3.2,1.8l0,0C6,4.1,0,5.5,0,18.4c0,8.3,3.9,19.1,9.9,26.9
	c0,1.2,0,2.1,0.7,2.8c4.6,5.3,9.9,8.5,15.2,9.2v16.4c0,13.6,11.1,24.6,24.6,24.6c13.8,0,24.9-11.1,24.9-24.6V59.4
	C81.8,58.3,86.6,52.7,86.6,45.8L86.6,45.8z"/>
</svg>
